# xmcd
#
# Track frame offsets:
# 150
# 18023
# 31825
# 45998
# 62394
# 80141
# 91510
# 106903
# 119577
# 134812
# 149182
#
# Disc length: 2250 seconds
#
#
# Revision: 0
# Processed by: cddbd v1.5PL3 Copyright (c) Steve Scherf et al.
# Submitted via: FreeRIP 2.53 
#
DISCID=8e08c80b
DTITLE=Kershaw, Sammy - Labor Of Love
DYEAR=1900
DGENRE=
TTITLE0=Honky Tonk America
TTITLE1=Shootin' The Bull(In An Old Cowtown)
TTITLE2=One Day Left To Live
TTITLE3=Cotton County Queen
TTITLE4=Matches
TTITLE5=Labor Of Love
TTITLE6=Thank God You're Gone
TTITLE7=Little Did I Know
TTITLE8=Arms Length Away
TTITLE9=Roamin' Love
TTITLE10=Love Of My Life
EXTD=
EXTT0=
EXTT1=
EXTT2=
EXTT3=
EXTT4=
EXTT5=
EXTT6=
EXTT7=
EXTT8=
EXTT9=
EXTT10=
PLAYORDER=
